<?xml version="1.0" encoding="utf-8"?>
<!-- Generator: Adobe Illustrator 18.0.0, SVG Export Plug-In . SVG Version: 6.00 Build 0)  -->
<!DOCTYPE svg PUBLIC "-//W3C//DTD SVG 1.1//EN" "http://www.w3.org/Graphics/SVG/1.1/DTD/svg11.dtd">
<svg version="1.1" id="Слой_1" xmlns="http://www.w3.org/2000/svg" xmlns:xlink="http://www.w3.org/1999/xlink" x="0px" y="0px"
	 viewBox="0 415.1 616 535.9" enable-background="new 0 415.1 616 535.9" xml:space="preserve">
<g>
	<g>
		<g>
			<polygon fill="#C6C6C5" points="522.1,776.1 225.9,947 14.1,824.9 8.6,821.5 12.3,814.2 310.1,653.6 511.8,770.1 522.1,770.8 			
				"/>
		</g>
		<g>
			<polygon fill="#F5F5F5" points="522.1,770.8 225.9,941.7 13.9,819.4 310.1,648.3 			"/>
		</g>
		<g>
			<polygon fill="#D9D9D9" points="403.9,740.8 174.1,873.4 70.8,813.9 300.5,681.3 			"/>
		</g>
		<g>
			<polygon fill="#D9D9D9" points="394.5,818.8 309.2,868.1 268.1,844.4 353.2,795.1 			"/>
		</g>
	</g>
	<g>
		<g>
			<g>
				<polygon fill="#C6C6C5" points="304.8,646 8.6,821.5 8.6,817.1 8.6,590 304.8,418.9 310.1,421.2 304.8,431.4 				"/>
			</g>
		</g>
		<g>
			<g>
				<polygon fill="#B1B1B1" points="310.1,648.3 13.9,819.4 13.9,592.1 310.1,421.2 				"/>
			</g>
		</g>
		<g>
			<g>
				<polygon fill="#F5F5F5" points="299.6,641.6 26.8,799.2 26.8,598.5 299.6,440.9 				"/>
			</g>
		</g>
	</g>
	<g>
		<g>
			<g>
				<polygon fill="#F5F5F5" points="518.4,768.5 222,939.6 13.7,819.4 309.9,648.3 				"/>
			</g>
			<path fill="#B1B1B1" d="M392.9,826.5l-70.4,40.6c-4.1,2.3-11.2,2.1-16-0.7l-39-22.5c-4.8-2.7-5.1-6.9-1.1-9.2l70.4-40.6
				c4.1-2.3,11.2-2.1,16,0.7l39,22.5C396.4,819.9,396.9,824.2,392.9,826.5z"/>
			<path fill="#D9D9D9" d="M392.9,827.3l-70.4,40.6c-4.1,2.3-11.2,2.1-16-0.7l-39-22.5c-4.8-2.7-5.1-6.9-1.1-9.2l70.4-40.6
				c4.1-2.3,11.2-2.1,16,0.7l39,22.5C396.4,820.8,396.9,825,392.9,827.3z"/>
		</g>
		<g>
			<path fill="#6F6F6E" d="M104.3,834.4l-7.4,4.3c-1.9,1.2-5.7,1.1-8-0.4l-6.2-3.5c-2.3-1.4-2.7-3.4-0.5-4.6l7.4-4.3
				c1.9-1.2,5.7-1.1,8,0.4l6.2,3.5C106.1,831.2,106.2,833.2,104.3,834.4z"/>
			<path fill="#6F6F6E" d="M87.3,823.8l-8.9,5.1c-1.6,0.9-4.4,0.9-6.4-0.2l-2.1-1.2c-1.9-1.1-2.1-2.7-0.5-3.7l8.9-5.1
				c1.6-0.9,4.4-0.9,6.4,0.2l2.1,1.2C88.7,821.1,88.9,822.7,87.3,823.8z"/>
			<path fill="#6F6F6E" d="M104.8,813.5l-8.9,5.1c-1.6,0.9-4.4,0.9-6.4-0.2l-2.1-1.2c-1.9-1.1-2.1-2.7-0.5-3.7l8.9-5.1
				c1.6-0.9,4.4-0.9,6.4,0.2l2.1,1.2C106.2,811,106.4,812.6,104.8,813.5z"/>
			<path fill="#6F6F6E" d="M122.4,803.4l-8.9,5.1c-1.6,0.9-4.4,0.9-6.4-0.2l-2.1-1.2c-1.9-1.1-2.1-2.7-0.5-3.7l8.9-5.1
				c1.6-0.9,4.4-0.9,6.4,0.2l2.1,1.2C123.8,800.9,124,802.5,122.4,803.4z"/>
			<path fill="#6F6F6E" d="M139.9,793.3l-8.9,5.1c-1.6,0.9-4.4,0.9-6.4-0.2l-2.1-1.2c-1.9-1.1-2.1-2.7-0.5-3.7l8.9-5.1
				c1.6-0.9,4.4-0.9,6.4,0.2l2.1,1.2C141.3,790.8,141.5,792.4,139.9,793.3z"/>
			<path fill="#6F6F6E" d="M157.3,783.2l-8.9,5.1c-1.6,0.9-4.4,0.9-6.4-0.2l-2.1-1.2c-1.9-1.1-2.1-2.7-0.5-3.7l8.9-5.1
				c1.6-0.9,4.4-0.9,6.4,0.2l2.1,1.2C158.7,780.7,159.1,782.3,157.3,783.2z"/>
			<path fill="#6F6F6E" d="M174.8,773.1l-8.9,5.1c-1.6,0.9-4.4,0.9-6.4-0.2l-2.1-1.2c-1.9-1.1-2.1-2.7-0.5-3.7l8.9-5.1
				c1.6-0.9,4.4-0.9,6.4,0.2l2.1,1.2C176.3,770.6,176.4,772.2,174.8,773.1z"/>
			<path fill="#6F6F6E" d="M192.4,763l-8.9,5.1c-1.6,0.9-4.4,0.9-6.4-0.2l-2.1-1.2c-1.9-1.1-2.1-2.7-0.5-3.7l8.9-5.1
				c1.6-0.9,4.4-0.9,6.4,0.2l2.1,1.2C193.8,760.5,194,762.1,192.4,763z"/>
			<path fill="#6F6F6E" d="M209.9,752.9l-8.9,5.1c-1.6,0.9-4.4,0.9-6.4-0.2l-2.1-1.2c-1.9-1.1-2.1-2.7-0.5-3.7l8.9-5.1
				c1.6-0.9,4.4-0.9,6.4,0.2l2.1,1.2C211.4,750.2,211.5,752,209.9,752.9z"/>
			<path fill="#6F6F6E" d="M227.5,742.8l-8.9,5.1c-1.6,0.9-4.4,0.9-6.4-0.2l-2.1-1.2c-1.9-1.1-2.1-2.7-0.5-3.7l8.9-5.1
				c1.6-0.9,4.4-0.9,6.4,0.2l2.1,1.2C228.9,740.1,229.1,741.9,227.5,742.8z"/>
			<path fill="#6F6F6E" d="M245,732.7l-8.9,5.1c-1.6,0.9-4.4,0.9-6.4-0.2l-2.1-1.2c-1.9-1.1-2.1-2.7-0.5-3.7l8.9-5.1
				c1.6-0.9,4.4-0.9,6.4,0.2l2.1,1.2C246.4,730,246.6,731.8,245,732.7z"/>
			<path fill="#6F6F6E" d="M262.4,722.6l-8.9,5.1c-1.6,0.9-4.4,0.9-6.4-0.2l-2.1-1.2c-1.9-1.1-2.1-2.7-0.5-3.7l8.9-5.1
				c1.6-0.9,4.4-0.9,6.4,0.2l2.1,1.2C264,719.9,264.2,721.7,262.4,722.6z"/>
			<path fill="#6F6F6E" d="M280,712.5l-8.9,5.1c-1.6,0.9-4.4,0.9-6.4-0.2l-2.1-1.2c-1.9-1.1-2.1-2.7-0.5-3.7l8.9-5.1
				c1.6-0.9,4.4-0.9,6.4,0.2l2.1,1.2C281.4,709.8,281.7,711.4,280,712.5z"/>
			<path fill="#6F6F6E" d="M297.5,702.4l-8.9,5.1c-1.6,0.9-4.4,0.9-6.4-0.2l-2.1-1.2c-1.9-1.1-2.1-2.7-0.5-3.7l8.9-5.1
				c1.6-0.9,4.4-0.9,6.4,0.2l2.1,1.2C298.9,699.7,299.1,701.3,297.5,702.4z"/>
			<path fill="#6F6F6E" d="M315,692.3l-8.9,5.1c-1.6,0.9-4.4,0.9-6.4-0.2l-2.1-1.2c-1.9-1.1-2.1-2.7-0.5-3.7l8.9-5.1
				c1.6-0.9,4.4-0.9,6.4,0.2l2.1,1.2C316.5,689.6,316.6,691.2,315,692.3z"/>
			<path fill="#6F6F6E" d="M332.6,682.2l-8.9,5.1c-1.6,0.9-4.4,0.9-6.4-0.2l-2.1-1.2c-1.9-1.1-2.1-2.7-0.5-3.7l8.9-5.1
				c1.6-0.9,4.4-0.9,6.4,0.2l2.1,1.2C334,679.5,334.2,681.1,332.6,682.2z"/>
			<path fill="#6F6F6E" d="M122.4,824l-7.4,4.3c-1.9,1.2-5.7,1.1-8-0.4l-6.2-3.5c-2.3-1.4-2.7-3.4-0.5-4.6l7.4-4.3
				c1.9-1.2,5.7-1.1,8,0.4l6.2,3.5C124.1,820.8,124.5,822.7,122.4,824z"/>
			<path fill="#6F6F6E" d="M140.6,813.5l-7.4,4.3c-1.9,1.2-5.7,1.1-8-0.4l-6.2-3.5c-2.3-1.4-2.7-3.4-0.5-4.6l7.4-4.3
				c1.9-1.2,5.7-1.1,8,0.4l6.2,3.5C142.4,810.2,142.6,812.3,140.6,813.5z"/>
			<path fill="#6F6F6E" d="M158.7,803.1l-7.4,4.3c-1.9,1.2-5.7,1.1-8-0.4l-6.2-3.5c-2.3-1.4-2.7-3.4-0.5-4.6l7.4-4.3
				c1.9-1.2,5.7-1.1,8,0.4l6.2,3.5C160.5,799.7,160.7,801.8,158.7,803.1z"/>
			<path fill="#6F6F6E" d="M176.8,792.6l-7.4,4.3c-1.9,1.2-5.7,1.1-8-0.4l-6.2-3.5c-2.3-1.4-2.7-3.4-0.5-4.6l7.4-4.3
				c1.9-1.2,5.7-1.1,8,0.4l6.2,3.5C178.6,789.2,178.9,791.4,176.8,792.6z"/>
			<path fill="#6F6F6E" d="M194.9,782.1l-7.4,4.3c-1.9,1.2-5.7,1.1-8-0.4l-6.2-3.5c-2.3-1.4-2.7-3.4-0.5-4.6l7.4-4.3
				c1.9-1.2,5.7-1.1,8,0.4l6.2,3.5C196.6,778.8,197,780.9,194.9,782.1z"/>
			<path fill="#6F6F6E" d="M231.2,761.1l-7.4,4.3c-1.9,1.2-5.7,1.1-8-0.4l-6.2-3.5c-2.3-1.4-2.7-3.4-0.5-4.6l7.4-4.3
				c1.9-1.2,5.7-1.1,8,0.4l6.2,3.5C233,757.9,233.2,760,231.2,761.1z"/>
			<path fill="#6F6F6E" d="M267.5,740.1l-7.4,4.3c-1.9,1.2-5.7,1.1-8-0.4l-6.2-3.5c-2.3-1.4-2.7-3.4-0.5-4.6l7.4-4.3
				c1.9-1.2,5.7-1.1,8,0.4l6.2,3.5C269.3,736.9,269.5,739.1,267.5,740.1z"/>
			<path fill="#6F6F6E" d="M285.6,729.7l-7.4,4.3c-1.9,1.2-5.7,1.1-8-0.4L264,730c-2.3-1.4-2.7-3.4-0.5-4.6l7.4-4.3
				c1.9-1.2,5.7-1.1,8,0.4l6.2,3.5C287.4,726.5,287.6,728.6,285.6,729.7z"/>
			<path fill="#6F6F6E" d="M213.1,771.5l-7.4,4.3c-1.9,1.2-5.7,1.1-8-0.4l-6.2-3.5c-2.3-1.4-2.7-3.4-0.5-4.6l7.4-4.3
				c1.9-1.2,5.7-1.1,8,0.4l6.2,3.5C214.9,768.3,215.1,770.4,213.1,771.5z"/>
			<path fill="#6F6F6E" d="M249.3,750.6l-7.4,4.3c-1.9,1.2-5.7,1.1-8-0.4l-6.2-3.5c-2.3-1.4-2.7-3.4-0.5-4.6l7.4-4.3
				c1.9-1.2,5.7-1.1,8,0.4l6.2,3.5C251.1,747.4,251.4,749.5,249.3,750.6z"/>
			<path fill="#6F6F6E" d="M303.7,719.2l-7.4,4.3c-1.9,1.2-5.7,1.1-8-0.4l-6.2-3.5c-2.3-1.4-2.7-3.4-0.5-4.6l7.4-4.3
				c1.9-1.2,5.7-1.1,8,0.4l6.2,3.5C305.5,716,305.8,718.2,303.7,719.2z"/>
			<path fill="#6F6F6E" d="M321.8,708.8l-7.4,4.3c-1.9,1.2-5.7,1.1-8-0.4l-6.2-3.5c-2.3-1.4-2.7-3.4-0.5-4.6l7.4-4.3
				c1.9-1.2,5.7-1.1,8,0.4l6.2,3.5C323.6,705.6,323.9,707.7,321.8,708.8z"/>
			<path fill="#6F6F6E" d="M349.6,692.8l-16.8,9.7c-1.9,1.2-5.7,1.1-8-0.4l-6.2-3.5c-2.3-1.4-2.7-3.4-0.5-4.6l16.8-9.7
				c1.9-1.2,5.7-1.1,8,0.4l6.2,3.5C351.4,689.6,351.6,691.6,349.6,692.8z"/>
			<path fill="#6F6F6E" d="M149.3,828.4l-7.4,4.3c-1.9,1.2-5.7,1.1-8-0.4l-6.2-3.5c-2.3-1.4-2.7-3.4-0.5-4.6l7.4-4.3
				c1.9-1.2,5.7-1.1,8,0.4l6.2,3.5C151.1,825.2,151.4,827.2,149.3,828.4z"/>
			<path fill="#6F6F6E" d="M167.4,818l-7.4,4.3c-1.9,1.2-5.7,1.1-8-0.4l-6.2-3.5c-2.3-1.4-2.7-3.4-0.5-4.6l7.4-4.3
				c1.9-1.2,5.7-1.1,8,0.4l6.2,3.5C169.2,814.8,169.5,816.7,167.4,818z"/>
			<path fill="#6F6F6E" d="M185.6,807.5l-7.4,4.3c-1.9,1.2-5.7,1.1-8-0.4l-6.2-3.5c-2.3-1.4-2.7-3.4-0.5-4.6l7.4-4.3
				c1.9-1.2,5.7-1.1,8,0.4l6.2,3.5C187.4,804.3,187.6,806.3,185.6,807.5z"/>
			<path fill="#6F6F6E" d="M203.7,797l-7.4,4.3c-1.9,1.2-5.7,1.1-8-0.4l-6.2-3.5c-2.3-1.4-2.7-3.4-0.5-4.6l7.4-4.3
				c1.9-1.2,5.7-1.1,8,0.4l6.2,3.5C205.5,793.7,205.7,795.8,203.7,797z"/>
			<path fill="#6F6F6E" d="M221.8,786.6l-7.4,4.3c-1.9,1.2-5.7,1.1-8-0.4l-6.2-3.5c-2.3-1.4-2.7-3.4-0.5-4.6l7.4-4.3
				c1.9-1.2,5.7-1.1,8,0.4l6.2,3.5C223.6,783.2,223.9,785.3,221.8,786.6z"/>
			<path fill="#6F6F6E" d="M239.9,776.1l-7.3,4.3c-1.9,1.2-5.7,1.1-8-0.4l-6.2-3.5c-2.3-1.4-2.7-3.4-0.5-4.6l7.4-4.3
				c1.9-1.2,5.7-1.1,8,0.4l6.2,3.5C241.7,772.8,242,774.9,239.9,776.1z"/>
			<path fill="#6F6F6E" d="M276.2,755l-7.4,4.3c-1.9,1.2-5.7,1.1-8-0.4l-6.2-3.5c-2.3-1.4-2.7-3.4-0.5-4.6l7.4-4.3
				c1.9-1.2,5.7-1.1,8,0.4l6.2,3.5C278,751.8,278.2,754,276.2,755z"/>
			<path fill="#6F6F6E" d="M312.6,734.1l-7.4,4.3c-1.9,1.2-5.7,1.1-8-0.4l-6.2-3.5c-2.3-1.4-2.7-3.4-0.5-4.6l7.4-4.3
				c1.9-1.2,5.7-1.1,8,0.4l6.2,3.5C314.3,730.9,314.5,733,312.6,734.1z"/>
			<path fill="#6F6F6E" d="M330.6,723.7l-7.4,4.3c-1.9,1.2-5.7,1.1-8-0.4L309,724c-2.3-1.4-2.7-3.4-0.5-4.6l7.4-4.3
				c1.9-1.2,5.7-1.1,8,0.4l6.2,3.5C332.4,720.5,332.6,722.6,330.6,723.7z"/>
			<path fill="#6F6F6E" d="M258.1,765.7l-7.4,4.3c-1.9,1.2-5.7,1.1-8-0.4l-6.2-3.5c-2.3-1.4-2.7-3.4-0.5-4.6l7.4-4.3
				c1.9-1.2,5.7-1.1,8,0.4l6.2,3.5C259.9,762.3,260.1,764.4,258.1,765.7z"/>
			<path fill="#6F6F6E" d="M294.3,744.6l-7.4,4.3c-1.9,1.2-5.7,1.1-8-0.4l-6.2-3.5c-2.3-1.4-2.7-3.4-0.5-4.6l7.4-4.3
				c1.9-1.2,5.7-1.1,8,0.4l6.2,3.5C296.1,741.4,296.4,743.5,294.3,744.6z"/>
			<path fill="#6F6F6E" d="M348.7,713.2l-7.4,4.3c-1.9,1.2-5.7,1.1-8-0.4l-6.2-3.5c-2.3-1.4-2.7-3.4-0.5-4.6l7.4-4.3
				c1.9-1.2,5.7-1.1,8,0.4l6.2,3.5C350.5,710,350.9,712.1,348.7,713.2z"/>
			<path fill="#6F6F6E" d="M366.8,702.7l-7.4,4.3c-1.9,1.2-5.7,1.1-8-0.4l-6.2-3.5c-2.3-1.4-2.7-3.4-0.5-4.6l7.4-4.3
				c1.9-1.2,5.7-1.1,8,0.4l6.2,3.5C368.6,699.5,368.9,701.7,366.8,702.7z"/>
			<path fill="#6F6F6E" d="M131.1,838.9l-16.8,9.7c-1.9,1.2-5.7,1.1-8-0.4l-6.2-3.5c-2.3-1.4-2.7-3.4-0.5-4.6l16.8-9.7
				c1.9-1.2,5.7-1.1,8,0.4l6.2,3.5C132.8,835.7,133.2,837.6,131.1,838.9z"/>
			<path fill="#6F6F6E" d="M172.7,835.9l-7.4,4.3c-1.9,1.2-5.7,1.1-8-0.4l-6.2-3.5c-2.3-1.4-2.7-3.4-0.5-4.6l7.4-4.3
				c1.9-1.2,5.7-1.1,8,0.4l6.2,3.5C174.5,832.7,174.7,834.6,172.7,835.9z"/>
			<path fill="#6F6F6E" d="M190.8,825.4l-7.4,4.3c-1.9,1.2-5.7,1.1-8-0.4l-6.2-3.5c-2.3-1.4-2.7-3.4-0.5-4.6l7.4-4.3
				c1.9-1.2,5.7-1.1,8,0.4l6.2,3.5C192.6,822.2,192.7,824.2,190.8,825.4z"/>
			<path fill="#6F6F6E" d="M208.9,814.9l-7.4,4.3c-1.9,1.2-5.7,1.1-8-0.4l-6.2-3.5c-2.3-1.4-2.7-3.4-0.5-4.6l7.4-4.3
				c1.9-1.2,5.7-1.1,8,0.4l6.2,3.5C210.6,811.8,211,813.7,208.9,814.9z"/>
			<path fill="#6F6F6E" d="M227.1,804.5l-7.4,4.3c-1.9,1.2-5.7,1.1-8-0.4l-6.2-3.5c-2.3-1.4-2.7-3.4-0.5-4.6l7.4-4.3
				c1.9-1.2,5.7-1.1,8,0.4l6.2,3.5C228.9,801.3,229.1,803.2,227.1,804.5z"/>
			<path fill="#6F6F6E" d="M245.2,794l-7.4,4.3c-1.9,1.2-5.7,1.1-8-0.4l-6.2-3.5c-2.3-1.4-2.7-3.4-0.5-4.6l7.4-4.3
				c1.9-1.2,5.7-1.1,8,0.4l6.2,3.5C247,790.8,247.2,792.8,245.2,794z"/>
			<path fill="#6F6F6E" d="M263.3,783.6l-7.4,4.3c-1.9,1.2-5.7,1.1-8-0.4l-6.2-3.5c-2.3-1.4-2.7-3.4-0.5-4.6l7.4-4.3
				c1.9-1.2,5.7-1.1,8,0.4l6.2,3.5C265.1,780.2,265.4,782.3,263.3,783.6z"/>
			<path fill="#6F6F6E" d="M299.6,762.6l-7.4,4.3c-1.9,1.2-5.7,1.1-8-0.4L278,763c-2.3-1.4-2.7-3.4-0.5-4.6l7.4-4.3
				c1.9-1.2,5.7-1.1,8,0.4l6.2,3.5C301.4,759.3,301.6,761.4,299.6,762.6z"/>
			<path fill="#6F6F6E" d="M335.8,741.7l-7.4,4.3c-1.9,1.2-5.7,1.1-8-0.4l-6.2-3.5c-2.3-1.4-2.7-3.4-0.5-4.6l7.4-4.3
				c1.9-1.2,5.7-1.1,8,0.4l6.2,3.5C337.6,738.4,337.9,740.5,335.8,741.7z"/>
			<path fill="#6F6F6E" d="M354,731.1l-7.4,4.3c-1.9,1.2-5.7,1.1-8-0.4l-6.2-3.5c-2.3-1.4-2.7-3.4-0.5-4.6l7.4-4.3
				c1.9-1.2,5.7-1.1,8,0.4l6.2,3.5C355.8,727.9,356,730,354,731.1z"/>
			<path fill="#6F6F6E" d="M281.4,773.1l-7.4,4.3c-1.9,1.2-5.7,1.1-8-0.4l-6.2-3.5c-2.3-1.4-2.7-3.4-0.5-4.6l7.4-4.3
				c1.9-1.2,5.7-1.1,8,0.4l6.2,3.5C283.1,769.7,283.5,771.9,281.4,773.1z"/>
			<path fill="#6F6F6E" d="M317.7,752.2l-7.4,4.3c-1.9,1.2-5.7,1.1-8-0.4l-6.2-3.5c-2.3-1.4-2.7-3.4-0.5-4.6l7.4-4.3
				c1.9-1.2,5.7-1.1,8,0.4l6.2,3.5C319.5,748.8,319.7,750.9,317.7,752.2z"/>
			<path fill="#6F6F6E" d="M385.1,713.2l-20.7,12.1c-1.9,1.2-5.7,1.1-8-0.4l-6.2-3.5c-2.3-1.4-2.7-3.4-0.5-4.6l20.7-12.1
				c1.9-1.2,5.7-1.1,8,0.4l6.2,3.5C386.8,710,387,712.1,385.1,713.2z"/>
			<path fill="#6F6F6E" d="M155,846.1l-22.7,13.1c-1.9,1.2-5.7,1.1-8-0.4l-6.2-3.5c-2.3-1.4-2.7-3.4-0.5-4.6l22.7-13.1
				c1.9-1.2,5.7-1.1,8,0.4l6.2,3.5C156.8,842.8,156.9,844.9,155,846.1z"/>
			<path fill="#6F6F6E" d="M200.9,840.1l-7.4,4.3c-1.9,1.2-5.7,1.1-8-0.4l-6.2-3.5c-2.3-1.4-2.7-3.4-0.5-4.6l7.4-4.3
				c1.9-1.2,5.7-1.1,8,0.4l6.2,3.5C202.7,836.9,203,839,200.9,840.1z"/>
			<path fill="#6F6F6E" d="M219.2,829.7l-7.4,4.3c-1.9,1.2-5.7,1.1-8-0.4l-6.2-3.5c-2.3-1.4-2.7-3.4-0.5-4.6l7.4-4.3
				c1.9-1.2,5.7-1.1,8,0.4l6.2,3.5C220.9,826.5,221.1,828.6,219.2,829.7z"/>
			<path fill="#6F6F6E" d="M237.2,819.2l-7.4,4.3c-1.9,1.2-5.7,1.1-8-0.4l-6.2-3.5c-2.3-1.4-2.7-3.4-0.5-4.6l7.4-4.3
				c1.9-1.2,5.7-1.1,8,0.4l6.2,3.5C239,816,239.2,818.1,237.2,819.2z"/>
			<path fill="#6F6F6E" d="M255.3,808.7l-7.4,4.3c-1.9,1.2-5.7,1.1-8-0.4l-6.2-3.5c-2.3-1.4-2.7-3.4-0.5-4.6l7.4-4.3
				c1.9-1.2,5.7-1.1,8,0.4l6.2,3.5C257.1,805.5,257.4,807.5,255.3,808.7z"/>
			<path fill="#6F6F6E" d="M273.4,798.3l-7.4,4.3c-1.9,1.2-5.7,1.1-8-0.4l-6.2-3.5c-2.3-1.4-2.7-3.4-0.5-4.6l7.4-4.3
				c1.9-1.2,5.7-1.1,8,0.4l6.2,3.5C275.3,795.1,275.5,797,273.4,798.3z"/>
			<path fill="#6F6F6E" d="M291.7,787.8l-7.4,4.3c-1.9,1.2-5.7,1.1-8-0.4l-6.2-3.5c-2.3-1.4-2.7-3.4-0.5-4.6l7.4-4.3
				c1.9-1.2,5.7-1.1,8,0.4l6.2,3.5C293.4,784.6,293.6,786.6,291.7,787.8z"/>
			<path fill="#6F6F6E" d="M327.8,766.9l-7.4,4.3c-1.9,1.2-5.7,1.1-8-0.4l-6.2-3.5c-2.3-1.4-2.7-3.4-0.5-4.6l7.4-4.3
				c1.9-1.2,5.7-1.1,8,0.4l6.2,3.5C329.6,763.7,329.9,765.7,327.8,766.9z"/>
			<path fill="#6F6F6E" d="M367.3,744.2l-11.3,6.6c-1.9,1.2-5.7,1.1-8-0.4l-6.2-3.5c-2.3-1.4-2.7-3.4-0.5-4.6l11.3-6.6
				c1.9-1.2,5.7-1.1,8,0.4l6.2,3.5C369.1,740.8,369.3,743,367.3,744.2z"/>
			<path fill="#6F6F6E" d="M402.8,744.4l-7.4,4.3c-1.9,1.2-5.7,1.1-8-0.4l-6.2-3.5c-2.3-1.4-2.7-3.4-0.5-4.6l7.4-4.3
				c1.9-1.2,5.7-1.1,8,0.4l6.2,3.5C404.6,741.2,404.9,743.3,402.8,744.4z"/>
			<path fill="#6F6F6E" d="M420.9,733.9l-7.4,4.3c-1.9,1.2-5.7,1.1-8-0.4l-6.2-3.5c-2.3-1.4-2.7-3.4-0.5-4.6l7.4-4.3
				c1.9-1.2,5.7-1.1,8,0.4l6.2,3.5C422.6,730.7,423,732.9,420.9,733.9z"/>
			<path fill="#6F6F6E" d="M384.9,733.9l-7.4,4.3c-1.9,1.2-5.7,1.1-8-0.4l-6.2-3.5c-2.3-1.4-2.7-3.4-0.5-4.6l7.4-4.3
				c1.9-1.2,5.7-1.1,8,0.4l6.2,3.5C386.7,730.7,386.8,732.9,384.9,733.9z"/>
			<path fill="#6F6F6E" d="M403,723.7l-7.4,4.3c-1.9,1.2-5.7,1.1-8-0.4l-6.2-3.5c-2.3-1.4-2.7-3.4-0.5-4.6l7.4-4.3
				c1.9-1.2,5.7-1.1,8,0.4l6.2,3.5C404.7,720.3,404.9,722.4,403,723.7z"/>
			<path fill="#6F6F6E" d="M309.7,777.4l-7.4,4.3c-1.9,1.2-5.7,1.1-8-0.4l-6.2-3.5c-2.3-1.4-2.7-3.4-0.5-4.6l7.4-4.3
				c1.9-1.2,5.7-1.1,8,0.4l6.2,3.5C311.5,774.2,311.9,776.1,309.7,777.4z"/>
			<path fill="#6F6F6E" d="M346.1,756.4l-7.4,4.3c-1.9,1.2-5.7,1.1-8-0.4l-6.2-3.5c-2.3-1.4-2.7-3.4-0.5-4.6l7.4-4.3
				c1.9-1.2,5.7-1.1,8,0.4l6.2,3.5C347.8,753.3,348,755.2,346.1,756.4z"/>
			<path fill="#6F6F6E" d="M183.3,850.2L150,869.5c-1.9,1.2-5.7,1.1-8-0.4l-6.2-3.5c-2.3-1.4-2.7-3.4-0.5-4.6l33.3-19.3
				c1.9-1.2,5.7-1.1,8,0.4l6.2,3.5C185.3,847,185.5,849.2,183.3,850.2z"/>
			<path fill="#6F6F6E" d="M175.4,875.7l-7.4,4.3c-1.9,1.2-5.7,1.1-8-0.4l-6.2-3.5c-2.3-1.4-2.7-3.4-0.5-4.6l7.4-4.3
				c1.9-1.2,5.7-1.1,8,0.4l6.2,3.5C177.1,872.6,177.5,874.5,175.4,875.7z"/>
			<path fill="#6F6F6E" d="M193.6,865.3l-7.4,4.3c-1.9,1.2-5.7,1.1-8-0.4l-6.2-3.5c-2.3-1.4-2.7-3.4-0.5-4.6l7.4-4.3
				c1.9-1.2,5.7-1.1,8,0.4l6.2,3.5C195.4,862.1,195.6,864,193.6,865.3z"/>
			<path fill="#6F6F6E" d="M211.7,854.8l-7.4,4.3c-1.9,1.2-5.7,1.1-8-0.4l-6.2-3.5c-2.3-1.4-2.7-3.4-0.5-4.6l7.4-4.3
				c1.9-1.2,5.7-1.1,8,0.4l6.2,3.5C213.5,851.6,213.7,853.6,211.7,854.8z"/>
			<path fill="#6F6F6E" d="M229.8,844.4l-7.4,4.3c-1.9,1.2-5.7,1.1-8-0.4l-6.2-3.5c-2.3-1.4-2.7-3.4-0.5-4.6l7.4-4.3
				c1.9-1.2,5.7-1.1,8,0.4l6.2,3.5C231.6,841,231.9,843.1,229.8,844.4z"/>
			<path fill="#6F6F6E" d="M342.9,779.1l-103.2,59.4c-1.9,1.2-5.7,1.1-8-0.4l-6.2-3.5c-2.3-1.4-2.7-3.4-0.5-4.6l103.2-59.6
				c1.9-1.2,5.7-1.1,8,0.4l6.2,3.5C344.7,775.8,344.8,777.9,342.9,779.1z"/>
			<path fill="#6F6F6E" d="M385.2,754.5l-7.4,4.3c-1.9,1.2-5.7,1.1-8-0.4l-6.2-3.5c-2.3-1.4-2.7-3.4-0.5-4.6l7.4-4.3
				c1.9-1.2,5.7-1.1,8,0.4l6.2,3.5C387,751.3,387.4,753.4,385.2,754.5z"/>
			<path fill="#6F6F6E" d="M367.9,764.6l-14.5,8.3c-1.9,1.2-5.7,1.1-8-0.4l-6.2-3.5c-2.3-1.4-2.7-3.4-0.5-4.6l14.5-8.3
				c1.9-1.2,5.7-1.1,8,0.4l6.2,3.5C369.8,761.4,370,763.4,367.9,764.6z"/>
		</g>
		<g>
			<path fill="#B1B1B1" d="M104.3,832.3l-7.4,4.3c-1.9,1.2-5.7,1.1-8-0.4l-6.2-3.5c-2.3-1.4-2.7-3.4-0.5-4.6l7.4-4.3
				c1.9-1.2,5.7-1.1,8,0.4l6.2,3.5C106.1,829.1,106.2,831.2,104.3,832.3z"/>
			<path fill="#B1B1B1" d="M87.3,821.7l-8.9,5.1c-1.6,0.9-4.4,0.9-6.4-0.2l-2.1-1.2c-1.9-1.1-2.1-2.7-0.5-3.7l8.9-5.1
				c1.6-0.9,4.4-0.9,6.4,0.2l2.1,1.2C88.7,819,88.9,820.8,87.3,821.7z"/>
			<path fill="#B1B1B1" d="M104.8,811.6l-8.9,5.1c-1.6,0.9-4.4,0.9-6.4-0.2l-2.1-1.2c-1.9-1.1-2.1-2.7-0.5-3.7l8.9-5.1
				c1.6-0.9,4.4-0.9,6.4,0.2l2.1,1.2C106.2,808.9,106.4,810.7,104.8,811.6z"/>
			<path fill="#B1B1B1" d="M122.4,801.5l-8.9,5.1c-1.6,0.9-4.4,0.9-6.4-0.2l-2.1-1.2c-1.9-1.1-2.1-2.7-0.5-3.7l8.9-5.1
				c1.6-0.9,4.4-0.9,6.4,0.2l2.1,1.2C123.8,798.8,124,800.4,122.4,801.5z"/>
			<path fill="#B1B1B1" d="M139.9,791.4l-8.9,5.1c-1.6,0.9-4.4,0.9-6.4-0.2l-2.1-1.2c-1.9-1.1-2.1-2.7-0.5-3.7l8.9-5.1
				c1.6-0.9,4.4-0.9,6.4,0.2l2.1,1.2C141.3,788.7,141.5,790.3,139.9,791.4z"/>
			<path fill="#B1B1B1" d="M157.3,781.3l-8.9,5.1c-1.6,0.9-4.4,0.9-6.4-0.2l-2.1-1.2c-1.9-1.1-2.1-2.7-0.5-3.7l8.9-5.1
				c1.6-0.9,4.4-0.9,6.4,0.2l2.1,1.2C158.7,778.6,159.1,780.2,157.3,781.3z"/>
			<path fill="#B1B1B1" d="M174.8,771.2l-8.9,5.1c-1.6,0.9-4.4,0.9-6.4-0.2l-2.1-1.2c-1.9-1.1-2.1-2.7-0.5-3.7l8.9-5.1
				c1.6-0.9,4.4-0.9,6.4,0.2l2.1,1.2C176.3,768.5,176.4,770.1,174.8,771.2z"/>
			<path fill="#B1B1B1" d="M192.4,760.9l-8.9,5.1c-1.6,0.9-4.4,0.9-6.4-0.2l-2.1-1.2c-1.9-1.1-2.1-2.7-0.5-3.7l8.9-5.1
				c1.6-0.9,4.4-0.9,6.4,0.2l2.1,1.2C193.8,758.4,194,760,192.4,760.9z"/>
			<path fill="#B1B1B1" d="M209.9,750.8l-8.9,5.1c-1.6,0.9-4.4,0.9-6.4-0.2l-2.1-1.2c-1.9-1.1-2.1-2.7-0.5-3.7l8.9-5.1
				c1.6-0.9,4.4-0.9,6.4,0.2l2.1,1.2C211.4,748.3,211.5,749.9,209.9,750.8z"/>
			<path fill="#B1B1B1" d="M227.5,740.7l-8.9,5.1c-1.6,0.9-4.4,0.9-6.4-0.2l-2.1-1.2c-1.9-1.1-2.1-2.7-0.5-3.7l8.9-5.1
				c1.6-0.9,4.4-0.9,6.4,0.2l2.1,1.2C228.9,738.2,229.1,739.8,227.5,740.7z"/>
			<path fill="#B1B1B1" d="M245,730.6l-8.9,5.1c-1.6,0.9-4.4,0.9-6.4-0.2l-2.1-1.2c-1.9-1.1-2.1-2.7-0.5-3.7l8.9-5.1
				c1.6-0.9,4.4-0.9,6.4,0.2l2.1,1.2C246.4,728.1,246.6,729.7,245,730.6z"/>
			<path fill="#B1B1B1" d="M262.4,720.5l-8.9,5.1c-1.6,0.9-4.4,0.9-6.4-0.2l-2.1-1.2c-1.9-1.1-2.1-2.7-0.5-3.7l8.9-5.1
				c1.6-0.9,4.4-0.9,6.4,0.2l2.1,1.2C264,718,264.2,719.6,262.4,720.5z"/>
			<path fill="#B1B1B1" d="M280,710.4l-8.9,5.1c-1.6,0.9-4.4,0.9-6.4-0.2l-2.1-1.2c-1.9-1.1-2.1-2.7-0.5-3.7l8.9-5.1
				c1.6-0.9,4.4-0.9,6.4,0.2l2.1,1.2C281.4,707.9,281.7,709.5,280,710.4z"/>
			<path fill="#B1B1B1" d="M297.5,700.3l-8.9,5.1c-1.6,0.9-4.4,0.9-6.4-0.2l-2.1-1.2c-1.9-1.1-2.1-2.7-0.5-3.7l8.9-5.1
				c1.6-0.9,4.4-0.9,6.4,0.2l2.1,1.2C298.9,697.6,299.1,699.4,297.5,700.3z"/>
			<path fill="#B1B1B1" d="M315,690.1l-8.9,5.1c-1.6,0.9-4.4,0.9-6.4-0.2l-2.1-1.2c-1.9-1.1-2.1-2.7-0.5-3.7l8.9-5.1
				c1.6-0.9,4.4-0.9,6.4,0.2l2.1,1.2C316.5,687.5,316.6,689.3,315,690.1z"/>
			<path fill="#B1B1B1" d="M332.6,680l-8.9,5.1c-1.6,0.9-4.4,0.9-6.4-0.2l-2.1-1.2c-1.9-1.1-2.1-2.7-0.5-3.7l8.9-5.1
				c1.6-0.9,4.4-0.9,6.4,0.2l2.1,1.2C334,677.4,334.2,679.2,332.6,680z"/>
			<path fill="#B1B1B1" d="M122.4,821.9l-7.4,4.3c-1.9,1.2-5.7,1.1-8-0.4l-6.2-3.5c-2.3-1.4-2.7-3.4-0.5-4.6l7.4-4.3
				c1.9-1.2,5.7-1.1,8,0.4l6.2,3.5C124.1,818.7,124.5,820.6,122.4,821.9z"/>
			<path fill="#B1B1B1" d="M140.6,811.4l-7.4,4.3c-1.9,1.2-5.7,1.1-8-0.4l-6.2-3.5c-2.3-1.4-2.7-3.4-0.5-4.6l7.4-4.3
				c1.9-1.2,5.7-1.1,8,0.4l6.2,3.5C142.4,808.2,142.6,810.2,140.6,811.4z"/>
			<path fill="#B1B1B1" d="M158.7,800.9l-7.4,4.3c-1.9,1.2-5.7,1.1-8-0.4l-6.2-3.5c-2.3-1.4-2.7-3.4-0.5-4.6l7.4-4.3
				c1.9-1.2,5.7-1.1,8,0.4l6.2,3.5C160.5,797.7,160.7,799.7,158.7,800.9z"/>
			<path fill="#B1B1B1" d="M176.8,790.5l-7.4,4.3c-1.9,1.2-5.7,1.1-8-0.4l-6.2-3.5c-2.3-1.4-2.7-3.4-0.5-4.6l7.4-4.3
				c1.9-1.2,5.7-1.1,8,0.4l6.2,3.5C178.6,787.3,178.9,789.2,176.8,790.5z"/>
			<path fill="#B1B1B1" d="M194.9,780l-7.4,4.3c-1.9,1.2-5.7,1.1-8-0.4l-6.2-3.5c-2.3-1.4-2.7-3.4-0.5-4.6l7.4-4.3
				c1.9-1.2,5.7-1.1,8,0.4l6.2,3.5C196.6,776.8,197,778.8,194.9,780z"/>
			<path fill="#B1B1B1" d="M231.2,759.1l-7.4,4.3c-1.9,1.2-5.7,1.1-8-0.4l-6.2-3.5c-2.3-1.4-2.7-3.4-0.5-4.6l7.4-4.3
				c1.9-1.2,5.7-1.1,8,0.4l6.2,3.5C233,755.9,233.2,757.9,231.2,759.1z"/>
			<path fill="#B1B1B1" d="M267.5,738.2l-7.4,4.3c-1.9,1.2-5.7,1.1-8-0.4l-6.2-3.5c-2.3-1.4-2.7-3.4-0.5-4.6l7.4-4.3
				c1.9-1.2,5.7-1.1,8,0.4l6.2,3.5C269.3,734.8,269.5,736.9,267.5,738.2z"/>
			<path fill="#B1B1B1" d="M285.6,727.7l-7.4,4.3c-1.9,1.2-5.7,1.1-8-0.4l-6.2-3.5c-2.3-1.4-2.7-3.4-0.5-4.6l7.4-4.3
				c1.9-1.2,5.7-1.1,8,0.4l6.2,3.5C287.4,724.4,287.6,726.5,285.6,727.7z"/>
			<path fill="#B1B1B1" d="M213.1,769.6l-7.4,4.3c-1.9,1.2-5.7,1.1-8-0.4l-6.2-3.5c-2.3-1.4-2.7-3.4-0.5-4.6l7.4-4.3
				c1.9-1.2,5.7-1.1,8,0.4l6.2,3.5C214.9,766.4,215.1,768.3,213.1,769.6z"/>
			<path fill="#B1B1B1" d="M249.3,748.6l-7.4,4.3c-1.9,1.2-5.7,1.1-8-0.4l-6.2-3.5c-2.3-1.4-2.7-3.4-0.5-4.6l7.4-4.3
				c1.9-1.2,5.7-1.1,8,0.4l6.2,3.5C251.1,745.3,251.4,747.4,249.3,748.6z"/>
			<path fill="#B1B1B1" d="M303.7,717.3l-7.4,4.3c-1.9,1.2-5.7,1.1-8-0.4l-6.2-3.5c-2.3-1.4-2.7-3.4-0.5-4.6l7.4-4.3
				c1.9-1.2,5.7-1.1,8,0.4l6.2,3.5C305.5,713.9,305.8,716,303.7,717.3z"/>
			<path fill="#B1B1B1" d="M321.8,706.6l-7.4,4.3c-1.9,1.2-5.7,1.1-8-0.4l-6.2-3.5c-2.3-1.4-2.7-3.4-0.5-4.6l7.4-4.3
				c1.9-1.2,5.7-1.1,8,0.4l6.2,3.5C323.6,703.4,323.9,705.6,321.8,706.6z"/>
			<path fill="#B1B1B1" d="M349.6,690.7l-16.8,9.7c-1.9,1.2-5.7,1.1-8-0.4l-6.2-3.5c-2.3-1.4-2.7-3.4-0.5-4.6l16.8-9.7
				c1.9-1.2,5.7-1.1,8,0.4l6.2,3.5C351.4,687.5,351.6,689.6,349.6,690.7z"/>
			<path fill="#B1B1B1" d="M149.3,826.3l-7.4,4.3c-1.9,1.2-5.7,1.1-8-0.4l-6.2-3.5c-2.3-1.4-2.7-3.4-0.5-4.6l7.4-4.3
				c1.9-1.2,5.7-1.1,8,0.4l6.2,3.5C151.1,823.1,151.4,825.2,149.3,826.3z"/>
			<path fill="#B1B1B1" d="M167.4,815.8l-7.4,4.3c-1.9,1.2-5.7,1.1-8-0.4l-6.2-3.5c-2.3-1.4-2.7-3.4-0.5-4.6l7.4-4.3
				c1.9-1.2,5.7-1.1,8,0.4l6.2,3.5C169.2,812.6,169.5,814.6,167.4,815.8z"/>
			<path fill="#B1B1B1" d="M185.6,805.4l-7.4,4.3c-1.9,1.2-5.7,1.1-8-0.4l-6.2-3.5c-2.3-1.4-2.7-3.4-0.5-4.6l7.4-4.3
				c1.9-1.2,5.7-1.1,8,0.4l6.2,3.5C187.4,802.2,187.6,804.1,185.6,805.4z"/>
			<path fill="#B1B1B1" d="M203.7,794.9l-7.4,4.3c-1.9,1.2-5.7,1.1-8-0.4l-6.2-3.5c-2.3-1.4-2.7-3.4-0.5-4.6l7.4-4.3
				c1.9-1.2,5.7-1.1,8,0.4l6.2,3.5C205.5,791.7,205.7,793.7,203.7,794.9z"/>
			<path fill="#B1B1B1" d="M221.8,784.5l-7.4,4.3c-1.9,1.2-5.7,1.1-8-0.4l-6.2-3.5c-2.3-1.4-2.7-3.4-0.5-4.6l7.4-4.3
				c1.9-1.2,5.7-1.1,8,0.4l6.2,3.5C223.6,781.3,223.9,783.2,221.8,784.5z"/>
			<path fill="#B1B1B1" d="M239.9,774l-7.4,4.3c-1.9,1.2-5.7,1.1-8-0.4l-6.2-3.5c-2.3-1.4-2.7-3.4-0.5-4.6l7.4-4.3
				c1.9-1.2,5.7-1.1,8,0.4l6.2,3.5C241.7,770.8,242,772.8,239.9,774z"/>
			<path fill="#B1B1B1" d="M276.2,753.1l-7.4,4.3c-1.9,1.2-5.7,1.1-8-0.4l-6.2-3.5c-2.3-1.4-2.7-3.4-0.5-4.6l7.4-4.3
				c1.9-1.2,5.7-1.1,8,0.4l6.2,3.5C278,749.9,278.2,751.8,276.2,753.1z"/>
			<path fill="#B1B1B1" d="M312.6,732.2l-7.4,4.3c-1.9,1.2-5.7,1.1-8-0.4l-6.2-3.5c-2.3-1.4-2.7-3.4-0.5-4.6l7.4-4.3
				c1.9-1.2,5.7-1.1,8,0.4l6.2,3.5C314.3,728.8,314.5,730.9,312.6,732.2z"/>
			<path fill="#B1B1B1" d="M330.6,721.7l-7.4,4.3c-1.9,1.2-5.7,1.1-8-0.4l-6.2-3.5c-2.3-1.4-2.7-3.4-0.5-4.6l7.4-4.3
				c1.9-1.2,5.7-1.1,8,0.4l6.2,3.5C332.4,718.3,332.6,720.5,330.6,721.7z"/>
			<path fill="#B1B1B1" d="M258.1,763.5l-7.4,4.3c-1.9,1.2-5.7,1.1-8-0.4l-6.2-3.5c-2.3-1.4-2.7-3.4-0.5-4.6l7.4-4.3
				c1.9-1.2,5.7-1.1,8,0.4l6.2,3.5C259.9,760.3,260.1,762.3,258.1,763.5z"/>
			<path fill="#B1B1B1" d="M294.3,742.6l-7.4,4.3c-1.9,1.2-5.7,1.1-8-0.4l-6.2-3.5c-2.3-1.4-2.7-3.4-0.5-4.6l7.4-4.3
				c1.9-1.2,5.7-1.1,8,0.4l6.2,3.5C296.1,739.4,296.4,741.4,294.3,742.6z"/>
			<path fill="#B1B1B1" d="M348.7,711.2l-7.4,4.3c-1.9,1.2-5.7,1.1-8-0.4l-6.2-3.5c-2.3-1.4-2.7-3.4-0.5-4.6l7.4-4.3
				c1.9-1.2,5.7-1.1,8,0.4l6.2,3.5C350.5,707.9,350.9,710,348.7,711.2z"/>
			<path fill="#B1B1B1" d="M366.8,700.8l-7.4,4.3c-1.9,1.2-5.7,1.1-8-0.4l-6.2-3.5c-2.3-1.4-2.7-3.4-0.5-4.6l7.4-4.3
				c1.9-1.2,5.7-1.1,8,0.4l6.2,3.5C368.6,697.4,368.9,699.5,366.8,700.8z"/>
			<path fill="#B1B1B1" d="M131.1,836.7l-16.8,9.7c-1.9,1.2-5.7,1.1-8-0.4l-6.2-3.5c-2.3-1.4-2.7-3.4-0.5-4.6l16.8-9.7
				c1.9-1.2,5.7-1.1,8,0.4l6.2,3.5C132.8,833.6,133.2,835.7,131.1,836.7z"/>
			<path fill="#B1B1B1" d="M172.7,833.7l-7.4,4.3c-1.9,1.2-5.7,1.1-8-0.4l-6.2-3.5c-2.3-1.4-2.7-3.4-0.5-4.6l7.4-4.3
				c1.9-1.2,5.7-1.1,8,0.4l6.2,3.5C174.5,830.5,174.7,832.7,172.7,833.7z"/>
			<path fill="#B1B1B1" d="M190.8,823.3l-7.4,4.3c-1.9,1.2-5.7,1.1-8-0.4l-6.2-3.5c-2.3-1.4-2.7-3.4-0.5-4.6l7.4-4.3
				c1.9-1.2,5.7-1.1,8,0.4l6.2,3.5C192.6,820.1,192.7,822.2,190.8,823.3z"/>
			<path fill="#B1B1B1" d="M208.9,812.8l-7.4,4.3c-1.9,1.2-5.7,1.1-8-0.4l-6.2-3.5c-2.3-1.4-2.7-3.4-0.5-4.6l7.4-4.3
				c1.9-1.2,5.7-1.1,8,0.4l6.2,3.5C210.6,809.6,211,811.8,208.9,812.8z"/>
			<path fill="#B1B1B1" d="M227.1,802.4l-7.4,4.3c-1.9,1.2-5.7,1.1-8-0.4l-6.2-3.5c-2.3-1.4-2.7-3.4-0.5-4.6l7.4-4.3
				c1.9-1.2,5.7-1.1,8,0.4l6.2,3.5C228.9,799.2,229.1,801.3,227.1,802.4z"/>
			<path fill="#B1B1B1" d="M245.2,791.9l-7.4,4.3c-1.9,1.2-5.7,1.1-8-0.4l-6.2-3.5c-2.3-1.4-2.7-3.4-0.5-4.6l7.4-4.3
				c1.9-1.2,5.7-1.1,8,0.4l6.2,3.5C247,788.7,247.2,790.7,245.2,791.9z"/>
			<path fill="#B1B1B1" d="M263.3,781.4l-7.4,4.3c-1.9,1.2-5.7,1.1-8-0.4l-6.2-3.5c-2.3-1.4-2.7-3.4-0.5-4.6l7.4-4.3
				c1.9-1.2,5.7-1.1,8,0.4l6.2,3.5C265.1,778.2,265.4,780.2,263.3,781.4z"/>
			<path fill="#B1B1B1" d="M299.6,760.5l-7.4,4.3c-1.9,1.2-5.7,1.1-8-0.4l-6.2-3.5c-2.3-1.4-2.7-3.4-0.5-4.6l7.4-4.3
				c1.9-1.2,5.7-1.1,8,0.4l6.2,3.5C301.4,757.3,301.6,759.3,299.6,760.5z"/>
			<path fill="#B1B1B1" d="M335.8,739.6l-7.4,4.3c-1.9,1.2-5.7,1.1-8-0.4l-6.2-3.5c-2.3-1.4-2.7-3.4-0.5-4.6l7.4-4.3
				c1.9-1.2,5.7-1.1,8,0.4l6.2,3.5C337.6,736.4,337.9,738.4,335.8,739.6z"/>
			<path fill="#B1B1B1" d="M354,729.1l-7.4,4.3c-1.9,1.2-5.7,1.1-8-0.4l-6.2-3.5c-2.3-1.4-2.7-3.4-0.5-4.6l7.4-4.3
				c1.9-1.2,5.7-1.1,8,0.4l6.2,3.5C355.8,726,356,727.9,354,729.1z"/>
			<path fill="#B1B1B1" d="M281.4,771l-7.4,4.3c-1.9,1.2-5.7,1.1-8-0.4l-6.2-3.5c-2.3-1.4-2.7-3.4-0.5-4.6l7.4-4.3
				c1.9-1.2,5.7-1.1,8,0.4l6.2,3.5C283.1,767.8,283.5,769.7,281.4,771z"/>
			<path fill="#B1B1B1" d="M317.7,750.1l-7.4,4.3c-1.9,1.2-5.7,1.1-8-0.4l-6.2-3.5c-2.3-1.4-2.7-3.4-0.5-4.6l7.4-4.3
				c1.9-1.2,5.7-1.1,8,0.4l6.2,3.5C319.5,746.9,319.7,748.8,317.7,750.1z"/>
			<path fill="#B1B1B1" d="M385.1,711.2l-20.7,12.1c-1.9,1.2-5.7,1.1-8-0.4l-6.2-3.5c-2.3-1.4-2.7-3.4-0.5-4.6l20.7-12.1
				c1.9-1.2,5.7-1.1,8,0.4l6.2,3.5C386.8,707.9,387,710,385.1,711.2z"/>
			<path fill="#B1B1B1" d="M155,844l-22.7,13.1c-1.9,1.2-5.7,1.1-8-0.4l-6.2-3.5c-2.3-1.4-2.7-3.4-0.5-4.6l22.7-13.1
				c1.9-1.2,5.7-1.1,8,0.4l6.2,3.5C156.8,840.8,156.9,842.8,155,844z"/>
			<path fill="#B1B1B1" d="M200.9,838.2l-7.3,4.3c-1.9,1.2-5.7,1.1-8-0.4l-6.2-3.5c-2.3-1.4-2.7-3.4-0.5-4.6l7.4-4.3
				c1.9-1.2,5.7-1.1,8,0.4l6.2,3.5C202.7,834.8,203,836.9,200.9,838.2z"/>
			<path fill="#B1B1B1" d="M219.2,827.7l-7.4,4.3c-1.9,1.2-5.7,1.1-8-0.4l-6.2-3.5c-2.3-1.4-2.7-3.4-0.5-4.6l7.4-4.3
				c1.9-1.2,5.7-1.1,8,0.4l6.2,3.5C220.9,824.3,221.1,826.5,219.2,827.7z"/>
			<path fill="#B1B1B1" d="M237.2,817.2l-7.4,4.3c-1.9,1.2-5.7,1.1-8-0.4l-6.2-3.5c-2.3-1.4-2.7-3.4-0.5-4.6l7.4-4.3
				c1.9-1.2,5.7-1.1,8,0.4l6.2,3.5C239,813.9,239.2,816,237.2,817.2z"/>
			<path fill="#B1B1B1" d="M255.3,806.6l-7.4,4.3c-1.9,1.2-5.7,1.1-8-0.4l-6.2-3.5c-2.3-1.4-2.7-3.4-0.5-4.6l7.4-4.3
				c1.9-1.2,5.7-1.1,8,0.4l6.2,3.5C257.1,803.4,257.4,805.5,255.3,806.6z"/>
			<path fill="#B1B1B1" d="M273.4,796.2l-7.4,4.3c-1.9,1.2-5.7,1.1-8-0.4l-6.2-3.5c-2.3-1.4-2.7-3.4-0.5-4.6l7.4-4.3
				c1.9-1.2,5.7-1.1,8,0.4l6.2,3.5C275.3,793,275.5,795.1,273.4,796.2z"/>
			<path fill="#B1B1B1" d="M291.7,785.7l-7.4,4.3c-1.9,1.2-5.7,1.1-8-0.4L270,786c-2.3-1.4-2.7-3.4-0.5-4.6l7.4-4.3
				c1.9-1.2,5.7-1.1,8,0.4l6.2,3.5C293.4,782.5,293.6,784.6,291.7,785.7z"/>
			<path fill="#B1B1B1" d="M327.8,764.8l-7.4,4.3c-1.9,1.2-5.7,1.1-8-0.4l-6.2-3.5c-2.3-1.4-2.7-3.4-0.5-4.6l7.4-4.3
				c1.9-1.2,5.7-1.1,8,0.4l6.2,3.5C329.6,761.6,329.9,763.7,327.8,764.8z"/>
			<path fill="#B1B1B1" d="M367.3,742.1l-11.3,6.6c-1.9,1.2-5.7,1.1-8-0.4l-6.2-3.5c-2.3-1.4-2.7-3.4-0.5-4.6l11.3-6.6
				c1.9-1.2,5.7-1.1,8,0.4l6.2,3.5C369.1,738.9,369.3,740.8,367.3,742.1z"/>
			<path fill="#B1B1B1" d="M402.8,742.4l-7.4,4.3c-1.9,1.2-5.7,1.1-8-0.4l-6.2-3.5c-2.3-1.4-2.7-3.4-0.5-4.6l7.4-4.3
				c1.9-1.2,5.7-1.1,8,0.4l6.2,3.5C404.6,739.1,404.9,741.2,402.8,742.4z"/>
			<path fill="#B1B1B1" d="M420.9,732l-7.4,4.3c-1.9,1.2-5.7,1.1-8-0.4l-6.2-3.5c-2.3-1.4-2.7-3.4-0.5-4.6l7.4-4.3
				c1.9-1.2,5.7-1.1,8,0.4l6.2,3.5C422.6,728.6,423,730.7,420.9,732z"/>
			<path fill="#B1B1B1" d="M384.9,732l-7.4,4.3c-1.9,1.2-5.7,1.1-8-0.4l-6.2-3.5c-2.3-1.4-2.7-3.4-0.5-4.6l7.4-4.3
				c1.9-1.2,5.7-1.1,8,0.4l6.2,3.5C386.7,728.8,386.8,730.7,384.9,732z"/>
			<path fill="#B1B1B1" d="M403,721.5l-7.4,4.3c-1.9,1.2-5.7,1.1-8-0.4l-6.2-3.5c-2.3-1.4-2.7-3.4-0.5-4.6l7.4-4.3
				c1.9-1.2,5.7-1.1,8,0.4l6.2,3.5C404.7,718.3,404.9,720.3,403,721.5z"/>
			<path fill="#B1B1B1" d="M309.7,775.2l-7.4,4.3c-1.9,1.2-5.7,1.1-8-0.4l-6.2-3.5c-2.3-1.4-2.7-3.4-0.5-4.6l7.4-4.3
				c1.9-1.2,5.7-1.1,8,0.4l6.2,3.5C311.5,772,311.9,774.2,309.7,775.2z"/>
			<path fill="#B1B1B1" d="M346.1,754.3l-7.4,4.3c-1.9,1.2-5.7,1.1-8-0.4l-6.2-3.5c-2.3-1.4-2.7-3.4-0.5-4.6l7.4-4.3
				c1.9-1.2,5.7-1.1,8,0.4l6.2,3.5C347.8,751.1,348,753.3,346.1,754.3z"/>
			<path fill="#B1B1B1" d="M183.3,848.3L150,867.6c-1.9,1.2-5.7,1.1-8-0.4l-6.2-3.5c-2.3-1.4-2.7-3.4-0.5-4.6l33.3-19.3
				c1.9-1.2,5.7-1.1,8,0.4l6.2,3.5C185.3,844.9,185.5,847,183.3,848.3z"/>
			<path fill="#B1B1B1" d="M175.4,873.6l-7.4,4.3c-1.9,1.2-5.7,1.1-8-0.4l-6.2-3.5c-2.3-1.4-2.7-3.4-0.5-4.6l7.4-4.3
				c1.9-1.2,5.7-1.1,8,0.4l6.2,3.5C177.1,870.4,177.5,872.6,175.4,873.6z"/>
			<path fill="#B1B1B1" d="M193.6,863.2l-7.4,4.3c-1.9,1.2-5.7,1.1-8-0.4l-6.2-3.5c-2.3-1.4-2.7-3.4-0.5-4.6l7.4-4.3
				c1.9-1.2,5.7-1.1,8,0.4l6.2,3.5C195.4,860,195.6,861.9,193.6,863.2z"/>
			<path fill="#B1B1B1" d="M211.7,852.7l-7.4,4.3c-1.9,1.2-5.7,1.1-8-0.4l-6.2-3.5c-2.3-1.4-2.7-3.4-0.5-4.6l7.4-4.3
				c1.9-1.2,5.7-1.1,8,0.4l6.2,3.5C213.5,849.5,213.7,851.5,211.7,852.7z"/>
			<path fill="#B1B1B1" d="M229.8,842.2l-7.4,4.3c-1.9,1.2-5.7,1.1-8-0.4l-6.2-3.5c-2.3-1.4-2.7-3.4-0.5-4.6l7.4-4.3
				c1.9-1.2,5.7-1.1,8,0.4l6.2,3.5C231.6,839,231.9,841,229.8,842.2z"/>
			<path fill="#B1B1B1" d="M342.9,777l-103.2,59.6c-1.9,1.2-5.7,1.1-8-0.4l-6.2-3.5c-2.3-1.4-2.7-3.4-0.5-4.6l103.2-59.6
				c1.9-1.2,5.7-1.1,8,0.4l6.2,3.5C344.7,773.8,344.8,775.8,342.9,777z"/>
			<path fill="#B1B1B1" d="M385.2,752.5l-7.4,4.3c-1.9,1.2-5.7,1.1-8-0.4l-6.2-3.5c-2.3-1.4-2.7-3.4-0.5-4.6l7.4-4.3
				c1.9-1.2,5.7-1.1,8,0.4l6.2,3.5C387,749.4,387.4,751.3,385.2,752.5z"/>
			<path fill="#B1B1B1" d="M367.9,762.5l-14.5,8.3c-1.9,1.2-5.7,1.1-8-0.4l-6.2-3.5c-2.3-1.4-2.7-3.4-0.5-4.6l14.5-8.3
				c1.9-1.2,5.7-1.1,8,0.4l6.2,3.5C369.8,759.3,370,761.4,367.9,762.5z"/>
		</g>
	</g>
</g>
</svg>
