<?xml version="1.0" encoding="utf-8"?>
<!-- Generator: Adobe Illustrator 18.0.0, SVG Export Plug-In . SVG Version: 6.00 Build 0)  -->
<!DOCTYPE svg PUBLIC "-//W3C//DTD SVG 1.1//EN" "http://www.w3.org/Graphics/SVG/1.1/DTD/svg11.dtd">
<svg version="1.1" id="Слой_1" xmlns="http://www.w3.org/2000/svg" xmlns:xlink="http://www.w3.org/1999/xlink" x="0px" y="0px"
	 viewBox="1508.9 653 331.6 197" enable-background="new 1508.9 653 331.6 197" xml:space="preserve">
<g>
	<g opacity="0.1">
		
			<image overflow="visible" enable-background="new    " width="846" height="617" xlink:href="5426D110.png"  transform="matrix(0.4239 0 0 0.4227 1500.9601 639.2713)">
		</image>
	</g>
	<g>
		<polygon fill="#4A4A4A" points="1593.3,708.3 1574.3,719.3 1564.7,713.8 1583.9,702.8 		"/>
		<polygon fill="#4A4A4A" points="1646.4,668.4 1634,675.7 1632.4,674.8 1644.9,667.6 		"/>
		<polygon fill="#4A4A4A" points="1650.5,670.8 1637.9,678 1636.5,677.1 1648.9,669.9 		"/>
		<polygon fill="#4A4A4A" points="1654.4,673.1 1642,680.3 1640.4,679.4 1653,672.3 		"/>
		<polygon fill="#4A4A4A" points="1713.6,706.4 1632.6,753 1631,752.1 1712,705.5 		"/>
		<polygon fill="#4A4A4A" points="1717.2,709.9 1637.4,755.8 1636,755 1715.8,709 		"/>
		<polygon fill="#4A4A4A" points="1717.7,715.2 1642.4,758.7 1641,757.8 1716.3,714.4 		"/>
		<polygon fill="#4A4A4A" points="1726.4,715.8 1647.3,761.5 1645.9,760.6 1725,715.1 		"/>
		<polygon fill="#4A4A4A" points="1729.9,719.5 1652.3,764.3 1650.7,763.5 1728.5,718.6 		"/>
		<polygon fill="#4A4A4A" points="1738.1,720.6 1657.1,767.2 1655.7,766.3 1736.5,719.7 		"/>
		<polygon fill="#4A4A4A" points="1737.4,726.6 1662,770 1660.6,769.1 1735.8,725.7 		"/>
		<polygon fill="#4A4A4A" points="1744.7,728 1667,772.9 1665.4,772 1743.2,727.1 		"/>
		<polygon fill="#4A4A4A" points="1745.5,733.1 1671.8,775.7 1670.4,774.8 1743.9,732.3 		"/>
		<polygon fill="#4A4A4A" points="1753.9,734 1676.8,778.5 1675.3,777.6 1752.5,733.1 		"/>
		<polygon fill="#4A4A4A" points="1761.8,735.1 1681.7,781.4 1680.3,780.5 1760.2,734.2 		"/>
		<polygon fill="#D62040" points="1708.8,703.7 1628,750.3 1577.1,721.1 1658.1,674.3 		"/>
		<polygon fill="#D62040" points="1753.9,777.8 1714.5,800.3 1685.1,783.3 1724.3,760.8 		"/>
		<polygon fill="#D62040" points="1795.5,753.7 1756.3,776.4 1726.9,759.4 1766.1,736.7 		"/>
	</g>
</g>
</svg>
