<?xml version="1.0" encoding="utf-8"?>
<!-- Generator: Adobe Illustrator 18.0.0, SVG Export Plug-In . SVG Version: 6.00 Build 0)  -->
<!DOCTYPE svg PUBLIC "-//W3C//DTD SVG 1.1//EN" "http://www.w3.org/Graphics/SVG/1.1/DTD/svg11.dtd">
<svg version="1.1" id="Слой_1" xmlns="http://www.w3.org/2000/svg" xmlns:xlink="http://www.w3.org/1999/xlink" x="0px" y="0px"
	 viewBox="787.7 653 331.6 197" enable-background="new 787.7 653 331.6 197" xml:space="preserve">
<g>
	<g>
		<path fill="#C6C6C5" d="M1111.2,792.8l-90.6,52.5c-7.1,4.1-19.3,3.5-27.7-1.1L797.8,731.3c-8.2-4.8-9-11.9-1.9-16l90.6-52.3
			c7.1-4.1,19.3-3.5,27.7,1.1L1109.3,777C1117.4,781.6,1118.3,788.7,1111.2,792.8z"/>
		<polygon fill="#C6C6C5" points="801,723 791.1,723 791.1,716.6 801,713 		"/>
		<polygon fill="#C6C6C5" points="1106.6,786.1 1116,786.1 1116,780.9 1106.6,776.8 		"/>
	</g>
	<g>
		<path fill="#9C9B9B" d="M1111.2,787.5l-90.6,52.5c-7.1,4.1-19.3,3.5-27.7-1.1L797.8,726c-8.2-4.8-9-11.9-1.9-16l90.6-52.3
			c7.1-4.1,19.3-3.5,27.7,1.1l195.2,112.9C1117.4,776.3,1118.3,783.4,1111.2,787.5z"/>
		<path fill="#F5F5F5" d="M1079.3,773.5l-83,47.9c-7.1,4.1-19.3,3.5-27.7-1.1L824.2,737c-8.2-4.8-9-11.9-1.9-16l83-47.9
			c7.1-4.1,19.3-3.5,27.7,1.1l144.5,83.5C1085.5,762.3,1086.4,769.4,1079.3,773.5z"/>
		<path fill="#D9D9D9" d="M851,686.4c1.4,0.9,1.4,2.3,0,3.2c-1.4,0.9-3.9,0.9-5.3,0c-1.4-0.9-1.4-2.3,0-3
			C847.1,685.7,849.4,685.7,851,686.4z"/>
		<path fill="#D9D9D9" d="M1057.3,801.3c3.5,2.1,3.5,5.3,0,7.4c-3.5,2.1-9.4,2.1-12.9,0s-3.5-5.3,0-7.4S1053.8,799.2,1057.3,801.3z"
			/>
		<path fill="#D9D9D9" d="M872.1,685L843,701.9c-0.9,0.5-2.3,0.4-3.2-0.2l0,0c-0.9-0.5-1.1-1.4-0.2-1.8l29.1-16.8
			c0.9-0.5,2.3-0.4,3.2,0.2l0,0C872.8,683.8,873,684.5,872.1,685z"/>
	</g>
</g>
<g>
	<g>
		<g>
			<defs>
				<path id="SVGID_1_" d="M1430.2,795.2l-83,47.9c-7.1,4.1-19.3,3.5-27.7-1.1l-144.5-83.3c-8.2-4.8-9-11.9-1.9-16l83-47.9
					c7.1-4.1,19.3-3.5,27.7,1.1l144.5,83.5C1436.2,784,1437.1,791.1,1430.2,795.2z"/>
			</defs>
			<clipPath id="SVGID_2_">
				<use xlink:href="#SVGID_1_"  overflow="visible"/>
			</clipPath>
			<g opacity="0.1" clip-path="url(#SVGID_2_)">
				
					<image overflow="visible" enable-background="new    " width="929" height="667" xlink:href="E00A287E.png"  transform="matrix(0.4245 0 0 0.4222 1104.4833 610.4565)">
				</image>
			</g>
		</g>
	</g>
</g>
</svg>
