<?xml version="1.0" encoding="utf-8"?>
<!-- Generator: Adobe Illustrator 18.0.0, SVG Export Plug-In . SVG Version: 6.00 Build 0)  -->
<!DOCTYPE svg PUBLIC "-//W3C//DTD SVG 1.1//EN" "http://www.w3.org/Graphics/SVG/1.1/DTD/svg11.dtd">
<svg version="1.1" id="Слой_1" xmlns="http://www.w3.org/2000/svg" xmlns:xlink="http://www.w3.org/1999/xlink" x="0px" y="0px"
	 viewBox="0 0 293 284.9" enable-background="new 0 0 293 284.9" xml:space="preserve">
<g>
	<g opacity="5.000000e-002">
		
			<image overflow="visible" enable-background="new    " width="942" height="904" xlink:href="B1DF2BA6.png"  transform="matrix(0.4241 0 0 0.4221 -60.3575 -50.385)">
		</image>
	</g>
	<polygon fill="#4A4A4A" points="85.4,144.7 21.3,181.7 21.3,164.4 85.4,127.3 	"/>
	<polygon fill="#D62040" points="154.6,104.6 90.4,141.9 90.4,124.5 154.6,87.4 	"/>
	<polygon fill="#4A4A4A" points="223.9,64.7 159.7,101.8 159.7,84.4 223.9,47.4 	"/>
	<polygon fill="#4A4A4A" points="292.8,33.9 159.7,110.8 159.7,108 292.8,31.1 	"/>
	<polygon fill="#4A4A4A" points="290.7,42.2 159.7,117.9 159.7,115.1 290.7,39.4 	"/>
	<polygon fill="#4A4A4A" points="283.6,55 159.7,126.6 159.7,123.8 283.6,52.3 	"/>
	<polygon fill="#4A4A4A" points="289.8,60.8 159.7,136 159.7,133.2 289.8,58 	"/>
	<polygon fill="#4A4A4A" points="287.7,71.7 159.7,145.6 159.7,142.7 287.7,69 	"/>
	<polygon fill="#4A4A4A" points="292.8,78.2 159.7,155 159.7,152.3 292.8,75.4 	"/>
	<polygon fill="#4A4A4A" points="283.6,90.8 159.7,162.2 159.7,159.6 283.6,88 	"/>
	<polygon fill="#4A4A4A" points="287.5,97.9 159.7,171.8 159.7,169 287.5,95.1 	"/>
	<polygon fill="#4A4A4A" points="280.8,112.4 159.7,182.5 159.7,179.6 280.8,109.6 	"/>
	<polygon fill="#4A4A4A" points="286.6,119.7 159.7,192.9 159.7,190.1 286.6,116.9 	"/>
	<polygon fill="#4A4A4A" points="291.6,128.6 159.7,205 159.7,202.3 291.6,125.7 	"/>
	<polygon fill="#D62040" points="154.6,207.8 21.3,284.9 21.3,188.1 154.6,111 	"/>
	<polygon fill="#4A4A4A" points="293,24.7 228.8,61.9 228.8,44.5 293,7.5 	"/>
</g>
</svg>
