<?xml version="1.0" encoding="utf-8"?>
<!-- Generator: Adobe Illustrator 18.0.0, SVG Export Plug-In . SVG Version: 6.00 Build 0)  -->
<!DOCTYPE svg PUBLIC "-//W3C//DTD SVG 1.1//EN" "http://www.w3.org/Graphics/SVG/1.1/DTD/svg11.dtd">
<svg version="1.1" id="Слой_1" xmlns="http://www.w3.org/2000/svg" xmlns:xlink="http://www.w3.org/1999/xlink" x="0px" y="0px"
	 viewBox="422.9 -56 413 456.1" enable-background="new 422.9 -56 413 456.1" xml:space="preserve">
<g>
	<g opacity="5.000000e-002">
		
			<image overflow="visible" width="779" height="1096" xlink:href="6BED7FEC.png"  transform="matrix(0.4243 0 0 0.4243 443.8901 -54.5293)">
		</image>
	</g>
	<g>
		<g>
			<g>
				<polygon fill="#F5F5F5" stroke="#D9D9D9" stroke-width="0.5" stroke-miterlimit="10" points="798.7,205.9 525.9,363.5 
					525.9,145.3 798.7,-12.3 				"/>
			</g>
		</g>
		<g>
			<g>
				<polygon fill="#D9D9D9" points="798.7,3.8 525.9,161.4 525.9,145.3 798.7,-12.3 				"/>
			</g>
		</g>
		<g>
			<path fill="#FF625A" d="M535.1,148.1c0,1.2-0.9,2.7-1.8,3.2c-1.1,0.5-1.8,0.2-1.8-1.1c0-1.2,0.9-2.7,1.8-3.2
				C534.2,146.5,535.1,146.9,535.1,148.1z"/>
			<path fill="#FFBE30" d="M543.1,143.5c0,1.2-0.9,2.7-1.8,3.2c-1.1,0.5-1.8,0.2-1.8-1.1c0-1.2,0.9-2.7,1.8-3.2
				C542.2,141.9,543.1,142.2,543.1,143.5z"/>
			<path fill="#2FC943" d="M551.1,138.7c0,1.2-0.9,2.7-1.8,3.2c-0.9,0.5-1.8,0.2-1.8-1.1c0-1.2,0.9-2.7,1.8-3.2
				C550.4,137.1,551.1,137.6,551.1,138.7z"/>
		</g>
	</g>
</g>
</svg>
